<svg width="25" height="24" viewBox="0 0 25 24" fill="none" xmlns="http://www.w3.org/2000/svg">
<g clip-path="url(#clip0)">
<path d="M22.063 5.07001C21.6438 4.65049 21.1457 4.31762 20.5973 4.0905C20.0488 3.86337 19.4608 3.74646 18.867 3.74646C18.2731 3.74646 17.6851 3.86337 17.1367 4.0905C16.5882 4.31762 16.0901 4.65049 15.6709 5.07001L16.7388 6.13501C17.0188 5.85579 17.3511 5.63429 17.7169 5.48318C18.0827 5.33206 18.4748 5.25429 18.8707 5.25429C19.2667 5.25429 19.6587 5.33206 20.0245 5.48318C20.3903 5.63429 20.7227 5.85579 21.0027 6.13501C21.2826 6.41423 21.5047 6.74572 21.6562 7.11054C21.8078 7.47536 21.8857 7.86638 21.8857 8.26126C21.8857 8.65614 21.8078 9.04715 21.6562 9.41198C21.5047 9.7768 21.2826 10.1083 21.0027 10.3875L14.9866 16.3875C14.4222 16.9514 13.6563 17.2686 12.8573 17.2693C12.0584 17.27 11.2919 16.9542 10.7265 16.3913C10.1611 15.8283 9.84304 15.0645 9.84234 14.2677C9.84163 13.4709 10.1583 12.7064 10.7228 12.1425L11.7831 11.0775L10.7228 10.0125L9.65491 11.0775C9.23427 11.4956 8.90051 11.9923 8.67278 12.5393C8.44505 13.0863 8.32782 13.6727 8.32782 14.265C8.32782 14.8573 8.44505 15.4437 8.67278 15.9907C8.90051 16.5377 9.23427 17.0344 9.65491 17.4525C10.5058 18.2903 11.6553 18.7569 12.8509 18.75C13.4471 18.7525 14.0378 18.6371 14.5889 18.4105C15.1401 18.1839 15.6407 17.8507 16.062 17.43L22.078 11.43C22.921 10.5843 23.3929 9.43941 23.3901 8.2469C23.3873 7.0544 22.9099 5.91177 22.063 5.07001Z" fill="#337AB7"/>
<path d="M3.21775 18.615C2.93695 18.3362 2.71413 18.0049 2.56208 17.64C2.41004 17.2751 2.33177 16.8839 2.33177 16.4887C2.33177 16.0936 2.41004 15.7024 2.56208 15.3375C2.71413 14.9726 2.93695 14.6412 3.21775 14.3625L9.2338 8.36249C9.5133 8.08243 9.84552 7.86021 10.2114 7.70857C10.5772 7.55693 10.9695 7.47887 11.3657 7.47887C11.7619 7.47887 12.1542 7.55693 12.5201 7.70857C12.8859 7.86021 13.2182 8.08243 13.4977 8.36249C13.7767 8.64344 13.9963 8.97739 14.1436 9.34455C14.2909 9.71171 14.3627 10.1046 14.355 10.5C14.3572 10.8966 14.2807 11.2897 14.1296 11.6566C13.9786 12.0235 13.7562 12.3569 13.4751 12.6375L11.8809 14.25L12.9487 15.315L14.543 13.725C15.3916 12.8786 15.8683 11.7307 15.8683 10.5337C15.8683 9.33679 15.3916 8.18886 14.543 7.34249C13.6943 6.49612 12.5433 6.02063 11.3432 6.02063C10.143 6.02063 8.99202 6.49612 8.14339 7.34249L2.12735 13.3425C1.70557 13.7607 1.37086 14.2579 1.14246 14.8056C0.914063 15.3533 0.796482 15.9406 0.796482 16.5337C0.796482 17.1269 0.914063 17.7142 1.14246 18.2619C1.37086 18.8096 1.70557 19.3068 2.12735 19.725C2.98375 20.5563 4.13588 21.0149 5.33089 21C6.53643 21.0011 7.69348 20.5266 8.54947 19.68L7.48162 18.615C7.20212 18.895 6.8699 19.1173 6.50404 19.2689C6.13818 19.4205 5.74589 19.4986 5.34969 19.4986C4.95349 19.4986 4.5612 19.4205 4.19534 19.2689C3.82948 19.1173 3.49726 18.895 3.21775 18.615Z" fill="#337AB7"/>
</g>
<defs>
<clipPath id="clip0">
<rect width="24.0642" height="24" fill="white" transform="translate(0.0668449)"/>
</clipPath>
</defs>
</svg>
