<svg width="25" height="24" viewBox="0 0 25 24" fill="none" xmlns="http://www.w3.org/2000/svg">
<path d="M11.3443 21H3.07219C2.6733 21 2.29075 20.842 2.00869 20.5607C1.72664 20.2794 1.56818 19.8978 1.56818 19.5V8.25C1.56818 7.85218 1.72664 7.47064 2.00869 7.18934C2.29075 6.90804 2.6733 6.75 3.07219 6.75H11.3443C11.7431 6.75 12.1257 6.90804 12.4077 7.18934C12.6898 7.47064 12.8483 7.85218 12.8483 8.25V19.5C12.8483 19.8978 12.6898 20.2794 12.4077 20.5607C12.1257 20.842 11.7431 21 11.3443 21ZM3.07219 8.25V19.5H11.3443V8.25H3.07219Z" fill="#337AB7"/>
<path d="M19.6163 4.5L18.556 5.5575L20.3683 7.5H16.6083V4.5C16.6083 4.10218 16.4498 3.72064 16.1678 3.43934C15.8857 3.15804 15.5032 3 15.1043 3H7.58422V4.5H15.1043V15H16.6083V9H20.3683L18.556 10.9425L19.6163 12L23.3763 8.25L19.6163 4.5Z" fill="#337AB7"/>
</svg>
