<svg width="25" height="24" viewBox="0 0 25 24" fill="none" xmlns="http://www.w3.org/2000/svg">
<path d="M9.08823 9H10.5922V18H9.08823V9ZM13.6003 9H15.1043V18H13.6003V9Z" fill="#337AB7"/>
<path d="M3.07219 4.5V6H4.5762V21C4.5762 21.3978 4.73466 21.7794 5.01672 22.0607C5.29877 22.342 5.68133 22.5 6.08021 22.5H18.1123C18.5112 22.5 18.8937 22.342 19.1758 22.0607C19.4579 21.7794 19.6163 21.3978 19.6163 21V6H21.1203V4.5H3.07219ZM6.08021 21V6H18.1123V21H6.08021ZM9.08824 1.5H15.1043V3H9.08824V1.5Z" fill="#337AB7"/>
</svg>
