<svg width="25" height="24" viewBox="0 0 25 24" fill="none" xmlns="http://www.w3.org/2000/svg">
<path d="M21.1203 6H12.0963L9.53192 3.4425C9.392 3.30212 9.22561 3.19075 9.04234 3.11481C8.85906 3.03886 8.66253 2.99984 8.46407 3H3.07219C2.6733 3 2.29075 3.15804 2.00869 3.43934C1.72664 3.72064 1.56818 4.10218 1.56818 4.5V19.5C1.56818 19.8978 1.72664 20.2794 2.00869 20.5607C2.29075 20.842 2.6733 21 3.07219 21H21.1203C21.5192 21 21.9018 20.842 22.1838 20.5607C22.4659 20.2794 22.6243 19.8978 22.6243 19.5V7.5C22.6243 7.10218 22.4659 6.72064 22.1838 6.43934C21.9018 6.15804 21.5192 6 21.1203 6ZM16.6083 19.5H10.5922V18.75C10.5922 18.5511 10.6715 18.3603 10.8125 18.2197C10.9535 18.079 11.1448 18 11.3442 18H15.8563C16.0557 18 16.247 18.079 16.388 18.2197C16.5291 18.3603 16.6083 18.5511 16.6083 18.75V19.5ZM21.1203 19.5H18.1123V18.75C18.1123 18.1533 17.8746 17.581 17.4515 17.159C17.0284 16.7371 16.4546 16.5 15.8563 16.5H11.3442C10.7459 16.5 10.1721 16.7371 9.749 17.159C9.32592 17.581 9.08823 18.1533 9.08823 18.75V19.5H3.07219V4.5H8.46407L11.0359 7.0575L11.4721 7.5H21.1203V19.5Z" fill="#337AB7"/>
<path d="M10.5922 12.75C10.5922 13.3433 10.7687 13.9234 11.0992 14.4167C11.4297 14.9101 11.8995 15.2946 12.4491 15.5216C12.9988 15.7487 13.6036 15.8081 14.1871 15.6924C14.7706 15.5766 15.3066 15.2909 15.7273 14.8713C16.1479 14.4518 16.4344 13.9172 16.5505 13.3353C16.6666 12.7533 16.607 12.1501 16.3793 11.6019C16.1516 11.0538 15.7661 10.5852 15.2714 10.2556C14.7768 9.92595 14.1952 9.75 13.6003 9.75C12.8025 9.75 12.0374 10.0661 11.4733 10.6287C10.9092 11.1913 10.5922 11.9544 10.5922 12.75ZM13.6003 11.25C13.8977 11.25 14.1885 11.338 14.4359 11.5028C14.6832 11.6676 14.876 11.9019 14.9898 12.176C15.1036 12.4501 15.1334 12.7517 15.0754 13.0426C15.0173 13.3336 14.8741 13.6009 14.6638 13.8107C14.4534 14.0204 14.1854 14.1633 13.8937 14.2212C13.6019 14.2791 13.2995 14.2494 13.0247 14.1358C12.7499 14.0223 12.515 13.83 12.3497 13.5834C12.1845 13.3367 12.0963 13.0467 12.0963 12.75C12.0963 12.3522 12.2547 11.9706 12.5368 11.6893C12.8188 11.408 13.2014 11.25 13.6003 11.25Z" fill="#337AB7"/>
</svg>
