<svg xmlns="http://www.w3.org/2000/svg" width="24" height="24" viewBox="0 0 24 24"><defs><style>.a{fill:#428bca;}</style></defs><g transform="translate(-6.836 73.926)"><path class="a" d="M18.828-49.926A12.082,12.082,0,0,0,30.836-61.918,12.1,12.1,0,0,0,18.828-73.926,12.072,12.072,0,0,0,6.836-61.918,12.079,12.079,0,0,0,18.828-49.926Zm0-1.772A10.185,10.185,0,0,1,8.623-61.918,10.178,10.178,0,0,1,18.828-72.154,10.223,10.223,0,0,1,29.064-61.918,10.2,10.2,0,0,1,18.828-51.7Zm-.015-4.6a.865.865,0,0,0,.893-.969v-3.77h3.937a.871.871,0,0,0,.984-.863.87.87,0,0,0-.984-.893H19.707v-3.952a.877.877,0,0,0-.893-.984c-.56,0-.863.409-.863.984V-62.8H14.013a.877.877,0,0,0-.984.893.871.871,0,0,0,.984.863H17.95v3.77A.85.85,0,0,0,18.813-56.3Z"/></g></svg>