<svg xmlns="http://www.w3.org/2000/svg" width="24" height="24" viewBox="0 0 24 24"><defs><style>.a{fill:#4267b2;}.b{fill:#fff;}</style></defs><path class="a" d="M22.667,0H1.333A1.333,1.333,0,0,0,0,1.333V22.667A1.333,1.333,0,0,0,1.333,24H12.82V14.72H9.7V11.087H12.82V8.42c0-3.1,1.893-4.79,4.667-4.79a25.819,25.819,0,0,1,2.793.143V7H18.367c-1.5,0-1.8.717-1.8,1.767V11.08h3.6L19.7,14.713H16.57V24h6.1A1.333,1.333,0,0,0,24,22.667V1.333A1.333,1.333,0,0,0,22.667,0Z"/><path class="b" d="M35.977,31.246v-9.28h3.13l.467-3.633h-3.6V16.02c0-1.05.293-1.767,1.8-1.767H39.68v-3.24a25.819,25.819,0,0,0-2.793-.143c-2.767,0-4.667,1.69-4.667,4.79v2.667H29.11V21.96h3.117v9.287Z" transform="translate(-19.407 -7.246)"/></svg>