<svg xmlns="http://www.w3.org/2000/svg" width="27.9" height="24.75" viewBox="0 0 27.9 24.75">
  <path id="group-ic" d="M14.2,15.2a4.8,4.8,0,1,0-4.8-4.8A4.8,4.8,0,0,0,14.2,15.2ZM7,26V22.4a7.2,7.2,0,1,1,14.4,0V26m-6-20.4A4.893,4.893,0,0,1,20.2,2,4.844,4.844,0,0,1,25,6.8a4.844,4.844,0,0,1-4.8,4.8h0a7.22,7.22,0,0,1,7.2,7.2v2.4M13,5.6A4.893,4.893,0,0,0,8.2,2,4.844,4.844,0,0,0,3.4,6.8a4.844,4.844,0,0,0,4.8,4.8h0A7.22,7.22,0,0,0,1,18.8v2.4" transform="translate(-0.25 -1.25)" fill="none" stroke="#3f93c2" stroke-width="1.5"/>
</svg>
