<svg xmlns="http://www.w3.org/2000/svg" width="24" height="24" viewBox="0 0 24 24"><g transform="translate(-7.842 -7.842)"><path d="M8.428,21.464a.887.887,0,0,0-.569,1,12.154,12.154,0,0,0,1.679,4.013.861.861,0,0,0,1.082.313,1.731,1.731,0,0,1,1.964.313,1.685,1.685,0,0,1,.313,1.964.831.831,0,0,0,.313,1.082,12.156,12.156,0,0,0,4.014,1.679.859.859,0,0,0,1-.569,1.711,1.711,0,0,1,3.245,0,.856.856,0,0,0,.8.569.361.361,0,0,0,.171-.028,12.726,12.726,0,0,0,4.014-1.651.861.861,0,0,0,.313-1.082,1.694,1.694,0,0,1,2.277-2.277.831.831,0,0,0,1.082-.313,11.524,11.524,0,0,0,1.651-4.013.859.859,0,0,0-.569-1,1.736,1.736,0,0,1-1.11-1.622,1.709,1.709,0,0,1,1.167-1.622.887.887,0,0,0,.569-1,12.154,12.154,0,0,0-1.679-4.013.861.861,0,0,0-1.082-.313,1.694,1.694,0,0,1-2.277-2.277.831.831,0,0,0-.313-1.082,12.241,12.241,0,0,0-4.042-1.651.859.859,0,0,0-1,.569,1.658,1.658,0,0,1-1.594,1.139A1.709,1.709,0,0,1,18.22,8.428a.887.887,0,0,0-1-.569A12.725,12.725,0,0,0,13.21,9.51a.861.861,0,0,0-.313,1.082,1.694,1.694,0,0,1-2.277,2.277.831.831,0,0,0-1.082.313,12.641,12.641,0,0,0-1.651,4.07.859.859,0,0,0,.569,1A1.719,1.719,0,0,1,9.624,19.87,1.7,1.7,0,0,1,8.428,21.464Zm.626-4.213a11.233,11.233,0,0,1,1.309-3.188,2.853,2.853,0,0,0,3.672-3.672,11.089,11.089,0,0,1,3.188-1.309,2.9,2.9,0,0,0,2.619,1.651,2.81,2.81,0,0,0,2.59-1.679,11.234,11.234,0,0,1,3.188,1.309,2.853,2.853,0,0,0,3.672,3.672A11.088,11.088,0,0,1,30.6,17.223a2.9,2.9,0,0,0-1.651,2.619,2.81,2.81,0,0,0,1.679,2.59,11.233,11.233,0,0,1-1.309,3.188,2.853,2.853,0,0,0-3.672,3.672A11.089,11.089,0,0,1,22.461,30.6a2.9,2.9,0,0,0-2.619-1.651,2.81,2.81,0,0,0-2.59,1.679,11.234,11.234,0,0,1-3.188-1.309,2.853,2.853,0,0,0-3.672-3.672A11.088,11.088,0,0,1,9.083,22.46a2.9,2.9,0,0,0,1.651-2.619A2.81,2.81,0,0,0,9.054,17.252Z" transform="translate(0 0)" fill="#656565"/><path d="M35.653,40.335a3.014,3.014,0,0,0,.473-.025,4.727,4.727,0,1,0-3.835-1.345A4.811,4.811,0,0,0,35.653,40.335ZM31.893,35.18a3.766,3.766,0,0,1,3.362-3.362,1.885,1.885,0,0,1,.374-.025,3.79,3.79,0,0,1,2.665,1.1,3.849,3.849,0,0,1,1.1,3.063,3.766,3.766,0,0,1-3.362,3.362,3.715,3.715,0,0,1-3.063-1.1A3.833,3.833,0,0,1,31.893,35.18Z" transform="translate(-15.811 -15.74)" fill="#656565"/></g></svg>