<svg xmlns="http://www.w3.org/2000/svg" width="19.949" height="18.619" viewBox="0 0 19.949 18.619"><defs><style>.a{fill:#428bca;}</style></defs><path class="a" d="M20.949,20.619h-1.33V18.624a2,2,0,0,0-1.995-1.995h-2.66a2,2,0,0,0-1.995,1.995v1.995H11.64V18.624A3.325,3.325,0,0,1,14.964,15.3h2.66a3.325,3.325,0,0,1,3.325,3.325ZM16.294,8.65A1.995,1.995,0,1,1,14.3,10.645,1.995,1.995,0,0,1,16.294,8.65m0-1.33a3.325,3.325,0,1,0,3.325,3.325A3.325,3.325,0,0,0,16.294,7.32ZM10.31,15.3H8.98V13.3A2,2,0,0,0,6.985,11.31H4.325A2,2,0,0,0,2.33,13.3V15.3H1V13.3A3.325,3.325,0,0,1,4.325,9.98h2.66A3.325,3.325,0,0,1,10.31,13.3ZM5.655,3.33A1.995,1.995,0,1,1,3.66,5.325,1.995,1.995,0,0,1,5.655,3.33m0-1.33A3.325,3.325,0,1,0,8.98,5.325,3.325,3.325,0,0,0,5.655,2Z" transform="translate(-1 -2)"/></svg>