<svg xmlns="http://www.w3.org/2000/svg" width="34.892" height="20" viewBox="0 0 34.892 20"><g transform="translate(-9.372 -971.937)"><g transform="translate(-109.573 629.524)"><path d="M144.95,356.858v0l1.175-.262v-5.727l3.318.115v-1.809l-4.493-.757v0" transform="translate(-8.499)" fill="#656565" fill-rule="evenodd"/><path d="M136.437,348.42l-4.493.757v1.809l3.318-.115V356.6l1.175.262" transform="translate(0 -0.004)" fill="#656565" fill-rule="evenodd"/></g><path d="M12.982,32.132V49.12H35.445v1H11.978V32.132L8.589,35.521l-.71-.71,4.6-4.6,4.6,4.6-.71.71ZM38.671,48.149V30.124h-23.4v1H37.667v17.02l-3.39-3.389-.71.71,4.6,4.6,4.6-4.6-.71-.71Z" transform="translate(1.493 941.813)" fill="#656565"/></g></svg>