<svg xmlns="http://www.w3.org/2000/svg" width="23" height="16.099" viewBox="0 0 23 16.099"><defs><style>.a{fill:#7b858f;}</style></defs><g transform="translate(0)"><path class="a" d="M4.933.019A5.75,5.75,0,0,0,.115,2a.575.575,0,0,0,0,.69A5.669,5.669,0,0,1,.989,5.768V8.643a.575.575,0,0,0,.575.575H9.613a.575.575,0,0,0,.575-.575V6.01A5.911,5.911,0,0,0,4.933.019Z" transform="translate(12.811 6.881)"/><ellipse class="a" cx="2.875" cy="2.875" rx="2.875" ry="2.875" transform="translate(14.375)"/><ellipse class="a" cx="2.875" cy="2.875" rx="2.875" ry="2.875" transform="translate(2.875)"/><path class="a" d="M5.187.028A5.922,5.922,0,0,0,0,6.019V8.652a.575.575,0,0,0,.575.575H10.925a.575.575,0,0,0,.575-.575V5.777A5.75,5.75,0,0,0,5.187.028Z" transform="translate(0 6.872)"/></g></svg>