<svg xmlns="http://www.w3.org/2000/svg" xmlns:xlink="http://www.w3.org/1999/xlink" width="14" height="11" viewBox="0 0 14 11">
  <defs>
    <clipPath id="clip-path">
      <rect width="14" height="11" fill="none"/>
    </clipPath>
  </defs>
  <g id="Icons_File_Picker_Sort" data-name="Icons/File Picker/Sort" clip-path="url(#clip-path)">
    <g id="Sort" transform="translate(0 0)">
      <path id="Shape" d="M5.5,11a1.5,1.5,0,1,1,0-3,1.5,1.5,0,1,1,0,3ZM14,10H8V9h6v1ZM3,10H0V9H3v1Zm7.5-3A1.54,1.54,0,0,1,9,5.5a1.5,1.5,0,1,1,3,0A1.539,1.539,0,0,1,10.5,7ZM14,6H13V5h1V6ZM8,6H0V5H8V6ZM3.5,3A1.539,1.539,0,0,1,2,1.5,1.54,1.54,0,0,1,3.5,0,1.54,1.54,0,0,1,5,1.5,1.539,1.539,0,0,1,3.5,3ZM14,2H6V1h8V2ZM1,2H0V1H1V2Z" fill="#464a4f"/>
    </g>
  </g>
</svg>
