<svg xmlns="http://www.w3.org/2000/svg" width="24" height="24" viewBox="0 0 24 24"><defs><style>.a{fill:#1da1f2;}.b{fill:#fff;}</style></defs><path class="a" d="M21,24H3a3,3,0,0,1-3-3V3A3,3,0,0,1,3,0H21a3,3,0,0,1,3,3V21A3,3,0,0,1,21,24Z"/><g transform="translate(4.193 5.65)"><path class="b" d="M80.006,111.1a9.06,9.06,0,0,0,9.119-9.119c0-.138,0-.275-.006-.413a6.529,6.529,0,0,0,1.6-1.662,6.5,6.5,0,0,1-1.844.506,3.224,3.224,0,0,0,1.413-1.775,6.375,6.375,0,0,1-2.038.775,3.206,3.206,0,0,0-5.544,2.194,3.542,3.542,0,0,0,.081.731,9.1,9.1,0,0,1-6.606-3.35,3.218,3.218,0,0,0,.994,4.281,3.242,3.242,0,0,1-1.45-.4v.044a3.212,3.212,0,0,0,2.569,3.144,3.223,3.223,0,0,1-1.444.056,3.2,3.2,0,0,0,2.994,2.225,6.428,6.428,0,0,1-3.981,1.375,6.169,6.169,0,0,1-.762-.044,9.116,9.116,0,0,0,4.906,1.431" transform="translate(-75.1 -98.4)"/></g></svg>