<svg xmlns="http://www.w3.org/2000/svg" width="16" height="15.458" viewBox="0 0 16 15.458"><defs><style>.a{fill:#428bca;}</style></defs><g transform="translate(-2.041 -2.027)"><path class="a" d="M11,15.865l.808.808,1.484-1.479V22.17h1.146V15.195l1.484,1.479.808-.808L13.865,13Z" transform="translate(-3.825 -4.684)"/><path class="a" d="M14.339,13.473h-.287V12.327h.287a2.581,2.581,0,1,0,.206-5.158h-.493L14,6.7a4.012,4.012,0,0,0-7.955,0l-.011.47H5.536a2.581,2.581,0,1,0,.206,5.158h.287v1.146H5.743A3.725,3.725,0,0,1,5,6.1a5.158,5.158,0,0,1,10.087,0,3.725,3.725,0,0,1-.745,7.37Z"/></g></svg>