<svg xmlns="http://www.w3.org/2000/svg" xmlns:xlink="http://www.w3.org/1999/xlink" width="24" height="24" viewBox="0 0 24 24"><defs><style>.a,.b{fill-rule:evenodd;}.a{fill:url(#a);}.b{fill:#fff;}</style><linearGradient id="a" x1="0.5" y1="1" x2="0.5" gradientUnits="objectBoundingBox"><stop offset="0" stop-color="#25cf43"/><stop offset="1" stop-color="#61fd7d"/></linearGradient></defs><g transform="translate(0)"><g transform="translate(0)"><path class="a" d="M24,17.911c0,.132,0,.417-.012.637a12.668,12.668,0,0,1-.127,1.551,5.16,5.16,0,0,1-.435,1.3,4.625,4.625,0,0,1-2.036,2.034,5.178,5.178,0,0,1-1.307.434,12.439,12.439,0,0,1-1.539.123c-.22.008-.505.012-.636.012H6.091c-.132,0-.416,0-.637-.012A12.668,12.668,0,0,1,3.9,23.862a5.16,5.16,0,0,1-1.3-.435A4.626,4.626,0,0,1,.571,21.391a5.178,5.178,0,0,1-.435-1.307,12.519,12.519,0,0,1-.123-1.539C0,18.325,0,18.041,0,17.909L0,6.091c0-.132,0-.416.012-.637A12.587,12.587,0,0,1,.141,3.9,5.16,5.16,0,0,1,.575,2.6,4.625,4.625,0,0,1,2.611.571,5.169,5.169,0,0,1,3.918.136,12.7,12.7,0,0,1,5.456.012C5.677,0,5.962,0,6.093,0L17.911,0c.132,0,.417,0,.637.012A12.669,12.669,0,0,1,20.1.141a5.16,5.16,0,0,1,1.3.435A4.619,4.619,0,0,1,23.43,2.612a5.152,5.152,0,0,1,.435,1.306,12.527,12.527,0,0,1,.123,1.539c.008.221.012.505.012.637Z" transform="translate(0)"/></g><g transform="translate(3.633 3.239)"><path class="b" d="M103.09,81.316a8.555,8.555,0,0,0-13.464,10.32L88.41,96.068l4.536-1.189a8.554,8.554,0,0,0,4.089,1.041h0a8.556,8.556,0,0,0,6.052-14.6ZM97.038,94.474h0a7.1,7.1,0,0,1-3.62-.991l-.259-.153-2.691.706.718-2.623-.169-.267a7.112,7.112,0,1,1,6.024,3.329Zm3.9-5.324c-.214-.107-1.265-.624-1.461-.7s-.339-.107-.481.107-.552.7-.677.838-.249.16-.463.053a5.817,5.817,0,0,1-1.719-1.061,6.479,6.479,0,0,1-1.189-1.479c-.125-.213-.013-.329.094-.436s.214-.249.321-.374a1.458,1.458,0,0,0,.214-.357.394.394,0,0,0-.018-.374c-.053-.107-.481-1.159-.658-1.587s-.35-.36-.481-.367-.267-.007-.411-.007a.785.785,0,0,0-.57.268,2.4,2.4,0,0,0-.748,1.783,4.16,4.16,0,0,0,.873,2.211A9.523,9.523,0,0,0,97.215,90.9a12.308,12.308,0,0,0,1.218.45,2.908,2.908,0,0,0,1.347.085,2.2,2.2,0,0,0,1.443-1.016,1.765,1.765,0,0,0,.123-1.016c-.055-.089-.195-.143-.408-.25Z" transform="translate(-88.41 -78.809)"/></g></g></svg>