<svg xmlns="http://www.w3.org/2000/svg" xmlns:xlink="http://www.w3.org/1999/xlink" width="24" height="19" viewBox="0 0 24 19">
  <defs>
    <clipPath id="clip-path">
      <rect width="24" height="19" fill="none"/>
    </clipPath>
  </defs>
  <g id="Icons_Content_Picker_Shared_Folder" data-name="Icons/Content Picker/Shared Folder" clip-path="url(#clip-path)">
    <g id="Shared_Folder" data-name="Shared Folder" transform="translate(0 0)">
      <path id="Shape" d="M11,2,9.5.33A1,1,0,0,0,8.75,0H1A1,1,0,0,0,0,1V18a1,1,0,0,0,1,1H23a1,1,0,0,0,1-1V3a1,1,0,0,0-1-1Z" transform="translate(0 0)" fill="#4d91e2"/>
      <rect id="Rectangle-path" width="22" height="13" rx="0.5" transform="translate(1 5)" fill="#d9e7f9"/>
      <g id="Group_9" data-name="Group 9" transform="translate(7 8)">
        <path id="Shape-2" data-name="Shape" d="M2.145.008A2.5,2.5,0,0,0,.05.868a.25.25,0,0,0,0,.3,2.465,2.465,0,0,1,.38,1.34v1.25a.25.25,0,0,0,.25.25h3.5a.25.25,0,0,0,.25-.25V2.613A2.57,2.57,0,0,0,2.145.008Z" transform="translate(5.57 2.992)" fill="#4f92df"/>
        <circle id="Oval" cx="1.25" cy="1.25" r="1.25" transform="translate(6.25)" fill="#4f92df"/>
        <circle id="Oval-2" data-name="Oval" cx="1.25" cy="1.25" r="1.25" transform="translate(1.25)" fill="#4f92df"/>
        <path id="Shape-3" data-name="Shape" d="M2.255.012A2.575,2.575,0,0,0,0,2.617V3.762a.25.25,0,0,0,.25.25h4.5A.25.25,0,0,0,5,3.762V2.512A2.5,2.5,0,0,0,2.255.012Z" transform="translate(0 2.988)" fill="#4f92df"/>
      </g>
    </g>
  </g>
</svg>
