<svg xmlns="http://www.w3.org/2000/svg" width="22" height="20.477" viewBox="0 0 22 20.477">
  <path id="forward-ic" d="M1.844,23.479a.758.758,0,0,0,.667-.379,11.521,11.521,0,0,1,9.86-5.689v4.551a.763.763,0,0,0,1.3.539l9.1-9.1a.758.758,0,0,0,0-1.077l-9.1-9.1a.763.763,0,0,0-1.3.539V8.393A13.038,13.038,0,0,0,.994,21.287a12.394,12.394,0,0,0,.1,1.517.758.758,0,0,0,.6.652ZM12.75,15.894A13.364,13.364,0,0,0,2.511,20.445,11.612,11.612,0,0,1,13.2,9.827a.758.758,0,0,0,.69-.758V5.587l7.274,7.274-7.274,7.274V16.653a.758.758,0,0,0-.758-.758h-.41Z" transform="translate(-0.994 -3.002)" fill="#a5a5a5"/>
</svg>
