<svg xmlns="http://www.w3.org/2000/svg" width="20" height="20" viewBox="0 0 20 20">
  <path id="Path" d="M16.522,6.486A3.377,3.377,0,0,0,20,3.243,3.377,3.377,0,0,0,16.522,0a3.377,3.377,0,0,0-3.478,3.243,3.407,3.407,0,0,0,.145.946L6.261,8.081A3.445,3.445,0,0,0,3.478,6.757,3.377,3.377,0,0,0,0,10a3.377,3.377,0,0,0,3.478,3.243,3.445,3.445,0,0,0,2.783-1.324l6.927,3.865a3.766,3.766,0,0,0-.145.973A3.377,3.377,0,0,0,16.522,20,3.377,3.377,0,0,0,20,16.757a3.377,3.377,0,0,0-3.478-3.243,3.445,3.445,0,0,0-2.783,1.324L6.812,10.946a3.16,3.16,0,0,0,0-1.892l6.927-3.865a3.5,3.5,0,0,0,2.783,1.3Z" fill="#a5a5a5"/>
</svg>
