<svg xmlns="http://www.w3.org/2000/svg" width="20.87" height="24" viewBox="0 0 20.87 24">
  <g id="trash" transform="translate(-5 -3)">
    <path id="Path_2845" data-name="Path 2845" d="M20.179,27.6H10.424a2.112,2.112,0,0,1-2.059-1.937L6.5,8H24.1L22.237,25.662A2.112,2.112,0,0,1,20.179,27.6Z" transform="translate(0.133 -0.599)" fill="#fff"/>
    <path id="Path_2846" data-name="Path 2846" d="M24.826,6.178H6.043A1.067,1.067,0,0,1,5,5.089H5A1.067,1.067,0,0,1,6.043,4H24.826A1.067,1.067,0,0,1,25.87,5.089h0A1.067,1.067,0,0,1,24.826,6.178Z" transform="translate(0 0.089)" fill="#fff"/>
    <path id="Path_2847" data-name="Path 2847" d="M18.533,5.178H12V4.089A1.089,1.089,0,0,1,13.089,3h4.355a1.089,1.089,0,0,1,1.089,1.089Z" transform="translate(0.168)" fill="#fff"/>
  </g>
</svg>
