<svg xmlns="http://www.w3.org/2000/svg" width="13.768" height="10.542" viewBox="0 0 13.768 10.542">
  <g id="link" transform="translate(-0.97 -4.995)">
    <path id="Path_2838" data-name="Path 2838" d="M19.355,5.8a2.749,2.749,0,0,0-3.9,0l.651.651a1.837,1.837,0,0,1,2.6,2.6l-3.666,3.666a1.836,1.836,0,1,1-2.6-2.594l.646-.651-.646-.651-.651.651a2.753,2.753,0,0,0,3.9,3.881L19.364,9.69A2.749,2.749,0,0,0,19.355,5.8Z" transform="translate(-5.426)" fill="#656565"/>
    <path id="Path_2839" data-name="Path 2839" d="M2.446,15.723a1.833,1.833,0,0,1,0-2.6L6.112,9.458a1.833,1.833,0,0,1,2.6,0,1.805,1.805,0,0,1,.522,1.306A1.833,1.833,0,0,1,8.7,12.07l-.971.985.651.651.971-.971a2.757,2.757,0,0,0-3.9-3.9L1.781,12.5A2.729,2.729,0,0,0,3.733,17.18a2.782,2.782,0,0,0,1.961-.807l-.651-.651a1.833,1.833,0,0,1-2.6,0Z" transform="translate(0 -1.643)" fill="#656565"/>
  </g>
</svg>
