<svg xmlns="http://www.w3.org/2000/svg" width="15.724" height="13.013" viewBox="0 0 15.724 13.013">
  <g id="move" transform="translate(-2 -4)">
    <path id="Path_2836" data-name="Path 2836" d="M9.049,19.3H3.084A1.084,1.084,0,0,1,2,18.217V10.084A1.084,1.084,0,0,1,3.084,9H9.049a1.084,1.084,0,0,1,1.084,1.084v8.133A1.084,1.084,0,0,1,9.049,19.3ZM3.084,10.084v8.133H9.049V10.084Z" transform="translate(0 -2.289)" fill="#656565"/>
    <path id="Path_2837" data-name="Path 2837" d="M18.675,5.084l-.764.764,1.307,1.4H16.506V5.084A1.084,1.084,0,0,0,15.422,4H10V5.084h5.422v7.591h1.084V8.338h2.711l-1.307,1.4.764.764L21.386,7.8Z" transform="translate(-3.662)" fill="#656565"/>
  </g>
</svg>
