<svg xmlns="http://www.w3.org/2000/svg" width="13.768" height="11.801" viewBox="0 0 13.768 11.801">
  <g id="share" transform="translate(-2 -4)">
    <path id="Path_2840" data-name="Path 2840" d="M14.784,5.967h-5.9L7.207,4.29a.983.983,0,0,0-.7-.29H2.983A.983.983,0,0,0,2,4.983v9.834a.983.983,0,0,0,.983.983h11.8a.983.983,0,0,0,.983-.983V6.95A.983.983,0,0,0,14.784,5.967Zm-2.95,8.851H7.9v-.492a.492.492,0,0,1,.492-.492h2.95a.492.492,0,0,1,.492.492Zm2.95,0H12.818v-.492a1.475,1.475,0,0,0-1.475-1.475H8.392a1.475,1.475,0,0,0-1.475,1.475v.492H2.983V4.983H6.509L8.191,6.66l.285.29h6.309Z" transform="translate(0 0)" fill="#656565"/>
    <path id="Path_2841" data-name="Path 2841" d="M14,14.967A1.967,1.967,0,1,0,15.967,13,1.967,1.967,0,0,0,14,14.967Zm1.967-.983a.983.983,0,1,1-.983.983A.983.983,0,0,1,15.967,13.983Z" transform="translate(-6.1 -4.575)" fill="#656565"/>
  </g>
</svg>
